<svg version="1.1" baseProfile="full" width="450" height="345.5" viewbox="0 0 450 345.5" xmlns="http://www.w3.org/2000/svg" xmlns:xlink="http://www.w3.org/1999/xlink" xmlns:ev="http://www.w3.org/2001/xml-events" style="font-weight:bold; font-size:12pt; font-family:'Calibri', Helvetica, sans-serif;;stroke-width:3;stroke-linejoin:round;stroke-linecap:round">
  <title >nomnoml</title>
  <desc >#direction: right
[nginx]--&gt;[molgenis]
[nginx]--&gt;[&lt;usecase&gt; unpkg]
[nginx]--&gt;[node-edge]
[node-edge]--&gt;[molgenis]
[node-edge]--&gt;[&lt;usecase&gt; crm]
[node-edge]--&gt;[&lt;usecase&gt; data-platform]
[nginx]--&gt;[molgenis]
[transform-job]--&gt;[&lt;usecase&gt; s3]
[transform-job]--&gt;[molgenis]</desc>
  <path d="M56.2 64.5 L97.5 4.5 L187.5 4.5 L187.5 4.5 L277.5 4.5 L277.5 4.5 L356.9 120 L356.9 120 " style="stroke:#33322E;fill:none;stroke-dasharray:6 6;"></path>
  <path d="M344.9 112 L353.1 114.5 L353.7 106 L356.9 120 Z" style="stroke:#33322E;fill:#33322E;stroke-dasharray:none;"></path>
  <path d="M77.5 67.7 L97.5 60 L155.5 60 L155.5 60 " style="stroke:#33322E;fill:none;stroke-dasharray:6 6;"></path>
  <path d="M142.2 65.3 L148.8 60 L142.2 54.7 L155.5 60 Z" style="stroke:#33322E;fill:#33322E;stroke-dasharray:none;"></path>
  <path d="M49.9 95.5 L97.5 262 L136.5 262 L136.5 262 " style="stroke:#33322E;fill:none;stroke-dasharray:6 6;"></path>
  <path d="M123.2 267.3 L129.8 262 L123.2 256.7 L136.5 262 Z" style="stroke:#33322E;fill:#33322E;stroke-dasharray:none;"></path>
  <path d="M212.6 246.5 L277.5 206.5 L347.9 151 L347.9 151 " style="stroke:#33322E;fill:none;stroke-dasharray:6 6;"></path>
  <path d="M340.7 163.4 L342.6 155.1 L334.1 155.1 L347.9 151 Z" style="stroke:#33322E;fill:#33322E;stroke-dasharray:none;"></path>
  <path d="M238.5 253.2 L277.5 246.5 L345 246.5 L345 246.5 " style="stroke:#33322E;fill:none;stroke-dasharray:6 6;"></path>
  <path d="M331.7 251.8 L338.3 246.5 L331.7 241.2 L345 246.5 Z" style="stroke:#33322E;fill:#33322E;stroke-dasharray:none;"></path>
  <path d="M212.6 277.5 L277.5 317.5 L297.5 317.5 L297.5 317.5 " style="stroke:#33322E;fill:none;stroke-dasharray:6 6;"></path>
  <path d="M284.2 322.8 L290.8 317.5 L284.2 312.2 L297.5 317.5 Z" style="stroke:#33322E;fill:#33322E;stroke-dasharray:none;"></path>
  <path d="M219.8 115.5 L277.5 87.8 L350 40.4 L350 40.4 " style="stroke:#33322E;fill:none;stroke-dasharray:6 6;"></path>
  <path d="M341.8 52.2 L344.4 44.1 L335.9 43.2 L350 40.4 Z" style="stroke:#33322E;fill:#33322E;stroke-dasharray:none;"></path>
  <path d="M226.8 146.5 L277.5 166.5 L322.5 151 L322.5 151 " style="stroke:#33322E;fill:none;stroke-dasharray:6 6;"></path>
  <path d="M311.6 160.4 L316.2 153.2 L308.2 150.3 L322.5 151 Z" style="stroke:#33322E;fill:#33322E;stroke-dasharray:none;"></path>
  <rect x="13.5" y="64.5" height="31" width="64" style="stroke:#33322E;fill:#eee8d5;stroke-dasharray:none;"></rect>
  <text x="45.5" y="86" style="fill: #33322E;text-anchor: middle;">nginx</text>
  <rect x="321.5" y="120.5" height="31" width="92" style="stroke:#33322E;fill:#eee8d5;stroke-dasharray:none;"></rect>
  <text x="367.5" y="142" style="fill: #33322E;text-anchor: middle;">molgenis</text>
  <ellipse cx="187.5" cy="60" rx="32" ry="15.5" style="stroke:#33322E;fill:#eee8d5;stroke-dasharray:none;"></ellipse>
  <text x="187.5" y="66" style="fill: #33322E;font-weight:normal;text-anchor: middle;">unpkg</text>
  <rect x="136.5" y="246.5" height="31" width="102" style="stroke:#33322E;fill:#eee8d5;stroke-dasharray:none;"></rect>
  <text x="187.5" y="268" style="fill: #33322E;text-anchor: middle;">node-edge</text>
  <ellipse cx="367.5" cy="246.5" rx="22.5" ry="15.5" style="stroke:#33322E;fill:#eee8d5;stroke-dasharray:none;"></ellipse>
  <text x="368" y="253" style="fill: #33322E;font-weight:normal;text-anchor: middle;">crm</text>
  <ellipse cx="367.5" cy="317.5" rx="70" ry="15.5" style="stroke:#33322E;fill:#eee8d5;stroke-dasharray:none;"></ellipse>
  <text x="367.5" y="324" style="fill: #33322E;font-weight:normal;text-anchor: middle;">data-platform</text>
  <rect x="117.5" y="115.5" height="31" width="140" style="stroke:#33322E;fill:#eee8d5;stroke-dasharray:none;"></rect>
  <text x="187.5" y="137" style="fill: #33322E;text-anchor: middle;">transform-job</text>
  <ellipse cx="367.5" cy="29" rx="17.5" ry="15.5" style="stroke:#33322E;fill:#eee8d5;stroke-dasharray:none;"></ellipse>
  <text x="368" y="35" style="fill: #33322E;font-weight:normal;text-anchor: middle;">s3</text>
</svg>